<?xml version="1.0" encoding="utf-8" ?>
<svg xmlns="http://www.w3.org/2000/svg" xmlns:xlink="http://www.w3.org/1999/xlink" width="149" height="148">
	<path transform="scale(1.00676 1)" d="M0 84.2886L-0 -0L68.6169 0L79.3629 0L148 0L148 85.0233L148 90.4785L148 148L93.2092 148L54.4194 148L-0 148L0 91.4416L0 84.2886ZM79.3629 0L90.2226 13.3137L112.833 38.6021L127.21 52.8284C131.239 56.5697 135.658 60.0384 139.126 64.328C141.574 67.3558 143.023 70.0439 144.517 73.625C145.075 74.9604 145.835 76.5017 146.133 77.9223C146.712 80.1702 146.837 83.0517 148 85.0233L148 0L79.3629 0ZM0 84.2886C0.577115 83.6865 0.622572 82.5883 0.77739 81.789C1.05493 80.356 1.38743 78.9252 1.81244 77.5281C3.24679 72.8132 5.36171 68.0892 8.51127 64.264C11.3655 60.7975 14.9526 57.9161 18.2691 54.9055L31.852 42.0665C45.0641 28.8454 56.9734 14.59 68.6169 0L-0 -0L0 84.2886ZM148 90.4785C146.802 92.4193 147.054 95.3974 146.564 97.6435C144.851 105.485 138.533 114.128 132.003 118.653C124.694 124.244 114.14 126.753 105.075 125.546C95.4805 124.269 86.3476 119.194 80.0412 111.909L82.2796 123C83.8662 129.736 86.3662 135.908 89.6763 141.971C90.7937 144.018 91.8337 146.106 93.2092 148L148 148L148 90.4785ZM0 91.4416L-0 148L54.4194 148C58.9845 141.337 62.8845 133.549 64.9532 125.718C66.0995 121.378 66.6212 116.994 67.1653 112.552C64.0195 117 58.3697 120.389 53.4465 122.569C44.2818 126.628 33.9751 126.731 24.626 123.251C14.5126 119.486 5.77328 110.987 2.32243 100.681C1.71313 98.8611 1.25344 96.98 0.87865 95.0994C0.632752 93.8656 0.571722 92.6768 0.0362057 91.5185L0 91.4416ZM146.133 77.9223C145.546 78.0514 145.49 77.7052 145.128 78.25L145.179 78.3395C145.504 78.9391 145.467 79.7854 145.504 80.4531C145.6 82.1932 145.487 83.562 146.351 85.1604L146.75 85.25C147.331 86.3652 147.463 88.1782 147.078 89.375L146.937 89.7588C146.866 89.9647 146.874 90.1958 146.875 90.4111L146.543 90.5012C146.158 91.271 145.923 91.9635 145.803 92.8181C145.712 93.4672 145.621 97.6662 145.306 98.0007C144.392 98.9722 144.673 99.6977 144.155 100.685C144.083 100.822 143.634 101.091 143.485 101.25L143.407 101.33C142.978 101.811 143.182 102.546 142.821 103.125L142.56 103.125C142.485 103.514 142.452 103.842 142.204 104.157C141.802 104.667 141.956 105.092 141.312 105.527L140.875 106.929L140.551 107.001C140.269 107.538 140.073 108.091 139.875 108.661L139.554 108.751C139.028 110.14 137.298 112.685 136.053 113.495C135.659 113.751 134.505 114.959 134.375 115.377C133.977 115.472 133.803 115.441 133.576 115.81L133.25 116.377C132.695 116.539 132.637 116.654 132.317 117.103C132.025 117.513 132.039 118.162 132.003 118.653C138.533 114.128 144.851 105.485 146.564 97.6435C147.054 95.3974 146.802 92.4193 148 90.4785L148 85.0233C146.837 83.0517 146.712 80.1702 146.133 77.9223Z"/>
	<path transform="scale(1.00676 1)" d="M146.133 77.9223C146.712 80.1702 146.837 83.0517 148 85.0233L148 90.4785C146.802 92.4193 147.054 95.3974 146.564 97.6435C144.851 105.485 138.533 114.128 132.003 118.653C132.039 118.162 132.025 117.513 132.317 117.103C132.637 116.654 132.695 116.539 133.25 116.377L133.576 115.81C133.803 115.441 133.977 115.472 134.375 115.377C134.505 114.959 135.659 113.751 136.053 113.495C137.298 112.685 139.028 110.14 139.554 108.751L139.875 108.661C140.073 108.091 140.269 107.538 140.551 107.001L140.875 106.929L141.312 105.527C141.956 105.092 141.802 104.667 142.204 104.157C142.452 103.842 142.485 103.514 142.56 103.125L142.821 103.125C143.182 102.546 142.978 101.811 143.407 101.33L143.485 101.25C143.634 101.091 144.083 100.822 144.155 100.685C144.673 99.6977 144.392 98.9722 145.306 98.0007C145.621 97.6662 145.712 93.4672 145.803 92.8181C145.923 91.9635 146.158 91.271 146.543 90.5012L146.875 90.4111C146.874 90.1958 146.866 89.9647 146.937 89.7588L147.078 89.375C147.463 88.1782 147.331 86.3652 146.75 85.25L146.351 85.1604C145.487 83.562 145.6 82.1932 145.504 80.4531C145.467 79.7854 145.504 78.9391 145.179 78.3395L145.128 78.25C145.49 77.7052 145.546 78.0514 146.133 77.9223Z"/>
</svg>
